<?xml version="1.0" encoding="UTF-8" standalone="no"?>
<!-- Generated by IcoMoon.io -->

<svg
   xmlns:dc="http://purl.org/dc/elements/1.1/"
   xmlns:cc="http://creativecommons.org/ns#"
   xmlns:rdf="http://www.w3.org/1999/02/22-rdf-syntax-ns#"
   xmlns:svg="http://www.w3.org/2000/svg"
   xmlns="http://www.w3.org/2000/svg"
   xmlns:sodipodi="http://sodipodi.sourceforge.net/DTD/sodipodi-0.dtd"
   xmlns:inkscape="http://www.inkscape.org/namespaces/inkscape"
   version="1.1"
   width="32"
   height="32"
   viewBox="0 0 32 32"
   id="svg2"
   inkscape:version="0.48.3.1 r9886"
   sodipodi:docname="cart.svg">
  <metadata
     id="metadata13">
    <rdf:RDF>
      <cc:Work
         rdf:about="">
        <dc:format>image/svg+xml</dc:format>
        <dc:type
           rdf:resource="http://purl.org/dc/dcmitype/StillImage" />
      </cc:Work>
    </rdf:RDF>
  </metadata>
  <defs
     id="defs11" />
  <sodipodi:namedview
     pagecolor="#ffffff"
     bordercolor="#666666"
     borderopacity="1"
     objecttolerance="10"
     gridtolerance="10"
     guidetolerance="10"
     inkscape:pageopacity="0"
     inkscape:pageshadow="2"
     inkscape:window-width="1920"
     inkscape:window-height="1055"
     id="namedview9"
     showgrid="false"
     inkscape:zoom="9.9375"
     inkscape:cx="16.805032"
     inkscape:cy="16"
     inkscape:window-x="0"
     inkscape:window-y="0"
     inkscape:window-maximized="1"
     inkscape:current-layer="svg2" />
  <g
     id="icomoon-ignore"
     style="fill:#bdbdbd;fill-opacity:1">
    <line
       stroke-width="1"
       x1=""
       y1=""
       x2=""
       y2=""
       stroke="#449FDB"
       opacity=""
       id="line5"
       style="fill:#bdbdbd;fill-opacity:1" />
  </g>
  <path
     d="M26.476 18c1.1 0 2.247-0.865 2.549-1.923l2.901-10.154c0.302-1.058-0.351-1.923-1.451-1.923h-20.476c0-2.209-1.791-4-4-4h-6v4h6v17c0 1.657 1.343 3 3 3h19c1.105 0 2-0.895 2-2s-0.895-2-2-2h-18v-2h16.476zM10 8h18.088l-1.714 6h-16.373v-6zM12 29.5c0 1.375-1.125 2.5-2.5 2.5h-1c-1.375 0-2.5-1.125-2.5-2.5v-1c0-1.375 1.125-2.5 2.5-2.5h1c1.375 0 2.5 1.125 2.5 2.5v1zM30 29.5c0 1.375-1.125 2.5-2.5 2.5h-1c-1.375 0-2.5-1.125-2.5-2.5v-1c0-1.375 1.125-2.5 2.5-2.5h1c1.375 0 2.5 1.125 2.5 2.5v1z"
     fill="#000000"
     id="path7"
     style="fill:#bdbdbd;fill-opacity:1" />
</svg>
